<svg xmlns="http://www.w3.org/2000/svg" width="30.124" height="30.124" viewBox="0 0 30.124 30.124">
  <g id="Path_6" data-name="Path 6" fill="none">
    <path d="M7.531,0H22.593a7.531,7.531,0,0,1,7.531,7.531V22.593a7.531,7.531,0,0,1-7.531,7.531H7.531A7.531,7.531,0,0,1,0,22.593V7.531A7.531,7.531,0,0,1,7.531,0Z" stroke="none"/>
    <path d="M 7.530899047851563 2.999998092651367 C 5.032548904418945 2.999998092651367 2.999998092651367 5.032548904418945 2.999998092651367 7.530899047851563 L 2.999998092651367 22.59269714355469 C 2.999998092651367 25.09104919433594 5.032548904418945 27.12359809875488 7.530899047851563 27.12359809875488 L 22.59269714355469 27.12359809875488 C 25.09104919433594 27.12359809875488 27.12359809875488 25.09104919433594 27.12359809875488 22.59269714355469 L 27.12359809875488 7.530899047851563 C 27.12359809875488 5.032548904418945 25.09104919433594 2.999998092651367 22.59269714355469 2.999998092651367 L 7.530899047851563 2.999998092651367 M 7.530899047851563 -1.9073486328125e-06 L 22.59269714355469 -1.9073486328125e-06 C 26.75189781188965 -1.9073486328125e-06 30.12359809875488 3.371698379516602 30.12359809875488 7.530899047851563 L 30.12359809875488 22.59269714355469 C 30.12359809875488 26.75189781188965 26.75189781188965 30.12359809875488 22.59269714355469 30.12359809875488 L 7.530899047851563 30.12359809875488 C 3.371698379516602 30.12359809875488 -1.9073486328125e-06 26.75189781188965 -1.9073486328125e-06 22.59269714355469 L -1.9073486328125e-06 7.530899047851563 C -1.9073486328125e-06 3.371698379516602 3.371698379516602 -1.9073486328125e-06 7.530899047851563 -1.9073486328125e-06 Z" stroke="none"/>
  </g>
</svg>
