<svg xmlns="http://www.w3.org/2000/svg" width="32.356" height="32.356" viewBox="0 0 32.356 32.356">
  <path id="Path_5" data-name="Path 5" d="M328.178,150a16.178,16.178,0,1,0,16.178,16.178A16.178,16.178,0,0,0,328.178,150Zm9.909,8.392a12.518,12.518,0,0,1,2.69,7.2,47.365,47.365,0,0,0-5.157-.586h0a20.831,20.831,0,0,0-3.64.324c-.283-.688-.566-1.335-.849-2.022A19.8,19.8,0,0,0,338.087,158.392Zm-9.909-4.833a12.5,12.5,0,0,1,7.867,2.771,16.442,16.442,0,0,1-6.188,4.429,43.639,43.639,0,0,0-4.368-6.9,11.791,11.791,0,0,1,2.69-.3Zm-5.581,1.314a38.518,38.518,0,0,1,4.51,6.855,35.854,35.854,0,0,1-9.97,1.416h-1.213a12.7,12.7,0,0,1,6.673-8.271Zm-7.037,11.3V166h1.375a39.859,39.859,0,0,0,11.466-1.638c.243.526.485,1.092.728,1.678a19.638,19.638,0,0,0-7.017,4.186,21.457,21.457,0,0,0-3.5,4.044,12.458,12.458,0,0,1-3.054-8.089ZM328.178,178.8a12.558,12.558,0,0,1-7.5-2.487,18.647,18.647,0,0,1,2.932-3.6,16.947,16.947,0,0,1,6.552-4.045,61.488,61.488,0,0,1,2.508,9.222,12.3,12.3,0,0,1-4.49.91Zm7.139-2.245a62.1,62.1,0,0,0-2.326-8.473c.829-.121,2.629-.182,2.629-.182h0a22.666,22.666,0,0,1,4.955.586,12.6,12.6,0,0,1-5.258,8.069Z" transform="translate(-312 -150)" opacity="0.29"/>
</svg>
